<?xml version="1.0" standalone="no"?><!DOCTYPE svg PUBLIC "-//W3C//DTD SVG 1.1//EN" "http://www.w3.org/Graphics/SVG/1.1/DTD/svg11.dtd"><svg t="1571051963348" class="icon" viewBox="0 0 1024 1024" version="1.1" xmlns="http://www.w3.org/2000/svg" p-id="1359" xmlns:xlink="http://www.w3.org/1999/xlink" width="200" height="200"><defs><style type="text/css"></style></defs><path d="M921.105065 97.162453h-71.593387v-71.593386a25.569067 25.569067 0 0 0-51.138133 0v71.593386h-71.593386a25.569067 25.569067 0 0 0 0 51.138133H798.373545v71.593386a25.569067 25.569067 0 0 0 51.138133 0v-71.593386H921.105065a25.569067 25.569067 0 0 0 0-51.138133zM516.295603 20.455253A25.569067 25.569067 0 0 0 491.544747 0h-145.845956a25.569067 25.569067 0 0 0-24.750856 20.455253L78.144079 991.057019a25.569067 25.569067 0 0 0 49.501713 12.273152l140.527589-562.314911h300.896776l140.527589 562.314911a25.569067 25.569067 0 0 0 24.750857 20.455253 23.523541 23.523541 0 0 0 6.341128 0 25.569067 25.569067 0 0 0 18.614281-30.887432z m-235.235412 369.421874L365.744939 51.138133H471.089494l84.684748 338.738994z" p-id="1360" fill="#e6e6e6"></path></svg>